<svg width="9px" height="9px" viewBox="0 0 9 9" version="1.1" xmlns="http://www.w3.org/2000/svg" xmlns:xlink="http://www.w3.org/1999/xlink">
    <defs></defs>
    <g id="Symbols" stroke="none" stroke-width="1" fill="none" fill-rule="evenodd">
        <g id="Transaction/With-details" transform="translate(-175.000000, -41.000000)" fill="#00D0CC">
            <g id="Group-3" transform="translate(80.000000, 17.000000)">
                <g id="Group" transform="translate(0.000000, 20.000000)">
                    <g id="Group-13" transform="translate(93.000000, 2.000000)">
                        <g id="Group-12" transform="translate(2.250000, 0.541667)">
                            <rect id="Rectangle-6" transform="translate(4.250000, 4.541667) rotate(-180.000000) translate(-4.250000, -4.541667) " x="0" y="3.83333333" width="8.5" height="1.41666667" rx="0.708333333"></rect>
                            <g id="Group-11" transform="translate(6.776142, 3.598858) rotate(-45.000000) translate(-6.776142, -3.598858) translate(5.276142, 0.598858)">
                                <rect id="Rectangle-6-Copy" transform="translate(1.587013, 3.003680) rotate(-270.000000) translate(-1.587013, -3.003680) " x="-0.53798701" y="2.29534632" width="4.25" height="1.41666667" rx="0.708333333"></rect>
                            </g>
                        </g>
                        <g id="Group-12-Copy" transform="translate(5.750000, 8.458333) rotate(-180.000000) translate(-5.750000, -8.458333) translate(0.750000, 5.458333)">
                            <rect id="Rectangle-6" transform="translate(4.250000, 3.541667) rotate(-180.000000) translate(-4.250000, -3.541667) " x="0" y="2.83333333" width="8.5" height="1.41666667" rx="0.708333333"></rect>
                            <g id="Group-11" transform="translate(7.140103, 2.598858) rotate(-45.000000) translate(-7.140103, -2.598858) translate(6.140103, 0.098858)">
                                <rect id="Rectangle-6-Copy" transform="translate(0.829654, 2.246320) rotate(-270.000000) translate(-0.829654, -2.246320) " x="-1.29534632" y="1.53798701" width="4.25" height="1.41666667" rx="0.708333333"></rect>
                            </g>
                        </g>
                    </g>
                </g>
            </g>
        </g>
    </g>
</svg>
