<svg width="230px" height="192px" viewBox="0 0 230 192" version="1.1" xmlns="http://www.w3.org/2000/svg" xmlns:xlink="http://www.w3.org/1999/xlink">
    <defs>
        <path d="M10,0 L10,0 C15.5228475,-1.01453063e-15 20,4.4771525 20,10 L20,39.6955815 L0,39.6955815 L0,10 C-6.76353751e-16,4.4771525 4.4771525,1.01453063e-15 10,0 Z" id="path-1"></path>
        <path d="M40,0 L40,0 C45.5228475,-1.01453063e-15 50,4.4771525 50,10 L50,63.1346697 L30,63.1346697 L30,10 C30,4.4771525 34.4771525,1.01453063e-15 40,0 Z" id="path-2"></path>
        <path d="M70,0 L70,0 C75.5228475,-1.01453063e-15 80,4.4771525 80,10 L80,29.3969532 L60,29.3969532 L60,10 C60,4.4771525 64.4771525,1.01453063e-15 70,0 Z" id="path-3"></path>
        <path d="M100,0 L100,0 C105.522847,-1.01453063e-15 110,4.4771525 110,10 L110,66 L90,66 L90,10 C90,4.4771525 94.4771525,1.01453063e-15 100,0 Z" id="path-4"></path>
        <path d="M130,0 L130,0 C135.522847,-1.01453063e-15 140,4.4771525 140,10 L140,29.3969532 L120,29.3969532 L120,10 C120,4.4771525 124.477153,1.01453063e-15 130,0 Z" id="path-5"></path>
        <path d="M160,0 L160,0 C165.522847,-1.01453063e-15 170,4.4771525 170,10 L170,46 L150,46 L150,10 C150,4.4771525 154.477153,1.01453063e-15 160,0 Z" id="path-6"></path>
        <path d="M190,0 L190,0 C195.522847,-1.01453063e-15 200,4.4771525 200,10 L200,51.0057902 L180,51.0057902 L180,10 C180,4.4771525 184.477153,1.01453063e-15 190,0 Z" id="path-7"></path>
        <path d="M220,0 L220,0 C225.522847,-1.01453063e-15 230,4.4771525 230,10 L230,33 L210,33 L210,10 C210,4.4771525 214.477153,1.01453063e-15 220,0 Z" id="path-8"></path>
    </defs>
    <g id="Screens" stroke="none" stroke-width="1" fill="none" fill-rule="evenodd">
        <g id="Connecting-Bank-Copy-3" transform="translate(-73.000000, -196.000000)">
            <g id="Group-13" transform="translate(73.000000, 196.000000)">
                <g id="Group-12" stroke="#FFFFFF" stroke-width="2">
                    <path d="M1,125.757493 L19,125.757493 L19,42 C19,37.0294373 14.9705627,33 10,33 C5.02943725,33 1,37.0294373 1,42 L1,125.757493 Z" id="Rectangle-2-Copy-16"></path>
                    <path d="M31,125.391163 L49,125.391163 L49,57 C49,52.0294373 44.9705627,48 40,48 C35.0294373,48 31,52.0294373 31,57 L31,125.391163 Z" id="Rectangle-2-Copy-16"></path>
                    <path d="M61,125.396953 L79,125.396953 L79,29 C79,24.0294373 74.9705627,20 70,20 C65.0294373,20 61,24.0294373 61,29 L61,125.396953 Z" id="Rectangle-2-Copy-16"></path>
                    <path d="M91,125.269339 L109,125.269339 L109,10 C109,5.02943725 104.970563,1 100,1 C95.0294373,1 91,5.02943725 91,10 L91,125.269339 Z" id="Rectangle-2-Copy-16"></path>
                    <path d="M121,125.757493 L139,125.757493 L139,42 C139,37.0294373 134.970563,33 130,33 C125.029437,33 121,37.0294373 121,42 L121,125.757493 Z" id="Rectangle-2-Copy-16"></path>
                    <path d="M151,125.391163 L169,125.391163 L169,57 C169,52.0294373 164.970563,48 160,48 C155.029437,48 151,52.0294373 151,57 L151,125.391163 Z" id="Rectangle-2-Copy-16"></path>
                    <path d="M181,125.396953 L199,125.396953 L199,29 C199,24.0294373 194.970563,20 190,20 C185.029437,20 181,24.0294373 181,29 L181,125.396953 Z" id="Rectangle-2-Copy-16"></path>
                    <path d="M211,125.269339 L229,125.269339 L229,10 C229,5.02943725 224.970563,1 220,1 C215.029437,1 211,5.02943725 211,10 L211,125.269339 Z" id="Rectangle-2-Copy-16"></path>
                </g>
                <g id="Group-11" transform="translate(0.000000, 126.000000)">
                    <g id="Rectangle-2-Copy-25" transform="translate(10.000000, 19.847791) scale(1, -1) translate(-10.000000, -19.847791) ">
                        <use fill="#FFFFFF" fill-rule="evenodd" xlink:href="#path-1"></use>
                        <path stroke="#FFFFFF" stroke-width="2" d="M1,38.6955815 L19,38.6955815 L19,10 C19,5.02943725 14.9705627,1 10,1 C5.02943725,1 1,5.02943725 1,10 L1,38.6955815 Z"></path>
                    </g>
                    <g id="Rectangle-2-Copy-24" transform="translate(40.000000, 31.567335) scale(1, -1) translate(-40.000000, -31.567335) ">
                        <use fill="#FFFFFF" fill-rule="evenodd" xlink:href="#path-2"></use>
                        <path stroke="#FFFFFF" stroke-width="2" d="M31,62.1346697 L49,62.1346697 L49,10 C49,5.02943725 44.9705627,1 40,1 C35.0294373,1 31,5.02943725 31,10 L31,62.1346697 Z"></path>
                    </g>
                    <g id="Rectangle-2-Copy-23" transform="translate(70.000000, 14.698477) scale(1, -1) translate(-70.000000, -14.698477) ">
                        <use fill="#FFFFFF" fill-rule="evenodd" xlink:href="#path-3"></use>
                        <path stroke="#FFFFFF" stroke-width="2" d="M61,28.3969532 L79,28.3969532 L79,10 C79,5.02943725 74.9705627,1 70,1 C65.0294373,1 61,5.02943725 61,10 L61,28.3969532 Z"></path>
                    </g>
                    <g id="Rectangle-2-Copy-22" transform="translate(100.000000, 33.000000) scale(1, -1) translate(-100.000000, -33.000000) ">
                        <use fill="#FFFFFF" fill-rule="evenodd" xlink:href="#path-4"></use>
                        <path stroke="#FFFFFF" stroke-width="2" d="M91,65 L109,65 L109,10 C109,5.02943725 104.970563,1 100,1 C95.0294373,1 91,5.02943725 91,10 L91,65 Z"></path>
                    </g>
                    <g id="Rectangle-2-Copy-21" transform="translate(130.000000, 14.698477) scale(1, -1) translate(-130.000000, -14.698477) ">
                        <use fill="#FFFFFF" fill-rule="evenodd" xlink:href="#path-5"></use>
                        <path stroke="#FFFFFF" stroke-width="2" d="M121,28.3969532 L139,28.3969532 L139,10 C139,5.02943725 134.970563,1 130,1 C125.029437,1 121,5.02943725 121,10 L121,28.3969532 Z"></path>
                    </g>
                    <g id="Rectangle-2-Copy-20" transform="translate(160.000000, 23.000000) scale(1, -1) translate(-160.000000, -23.000000) ">
                        <use fill="#FFFFFF" fill-rule="evenodd" xlink:href="#path-6"></use>
                        <path stroke="#FFFFFF" stroke-width="2" d="M151,45 L169,45 L169,10 C169,5.02943725 164.970563,1 160,1 C155.029437,1 151,5.02943725 151,10 L151,45 Z"></path>
                    </g>
                    <g id="Rectangle-2-Copy-19" transform="translate(190.000000, 25.502895) scale(1, -1) translate(-190.000000, -25.502895) ">
                        <use fill="#FFFFFF" fill-rule="evenodd" xlink:href="#path-7"></use>
                        <path stroke="#FFFFFF" stroke-width="2" d="M181,50.0057902 L199,50.0057902 L199,10 C199,5.02943725 194.970563,1 190,1 C185.029437,1 181,5.02943725 181,10 L181,50.0057902 Z"></path>
                    </g>
                    <g id="Rectangle-2-Copy-18" transform="translate(220.000000, 16.500000) scale(1, -1) translate(-220.000000, -16.500000) ">
                        <use fill="#FFFFFF" fill-rule="evenodd" xlink:href="#path-8"></use>
                        <path stroke="#FFFFFF" stroke-width="2" d="M211,32 L229,32 L229,10 C229,5.02943725 224.970563,1 220,1 C215.029437,1 211,5.02943725 211,10 L211,32 Z"></path>
                    </g>
                </g>
            </g>
        </g>
    </g>
</svg>
