<svg width="137px" height="46px" viewBox="0 0 137 46" version="1.1" xmlns="http://www.w3.org/2000/svg" xmlns:xlink="http://www.w3.org/1999/xlink">
    <defs></defs>
    <g id="Symbols" stroke="none" stroke-width="1" fill="none" fill-rule="evenodd">
        <g id="Logo">
            <g id="Group-3-Copy">
                <g id="Group-2">
                    <g id="Group" transform="translate(23.893976, 0.000000)">
                        <rect id="Rectangle" fill="#FFFFFF" x="0" y="0" width="8.07228916" height="36.1428571" rx="4.03614458"></rect>
                        <path d="M0,23 L8.07228916,23 L8.07228916,32.1067126 C8.07228916,34.3358137 6.26524568,36.1428571 4.03614458,36.1428571 L4.03614458,36.1428571 C1.80704348,36.1428571 2.72986153e-16,34.3358137 0,32.1067126 L0,23 Z" id="Rectangle-Copy" fill="#00CFFF"></path>
                    </g>
                    <g id="Group-Copy-2" transform="translate(0.000000, 9.857143)">
                        <rect id="Rectangle" fill="#FFFFFF" x="0" y="0" width="8.07228916" height="36.1428571" rx="4.03614458"></rect>
                        <path d="M0,13.1428571 L8.07228916,13.1428571 L8.07228916,32.1067126 C8.07228916,34.3358137 6.26524568,36.1428571 4.03614458,36.1428571 L4.03614458,36.1428571 C1.80704348,36.1428571 5.60205667e-15,34.3358137 5.32907052e-15,32.1067126 L0,13.1428571 Z" id="Rectangle-Copy" fill="#00CFFF"></path>
                    </g>
                    <g id="Group-Copy" transform="translate(11.946988, 4.928571)">
                        <rect id="Rectangle" fill="#FFFFFF" x="0" y="0" width="8.07228916" height="36.1428571" rx="4.03614458"></rect>
                        <path d="M0,18.0714286 L8.07228916,18.0714286 L8.07228916,32.1067126 C8.07228916,34.3358137 6.26524568,36.1428571 4.03614458,36.1428571 L4.03614458,36.1428571 C1.80704348,36.1428571 2.93752141e-15,34.3358137 2.66453526e-15,32.1067126 L0,18.0714286 Z" id="Rectangle-Copy" fill="#00CFFF"></path>
                    </g>
                </g>
                <g id="Liquid" transform="translate(44.236145, 13.800000)">
                    <path d="M2.25870054,17.8932771 C1.01104427,17.8932771 9.03444079e-05,16.8953118 9.03444079e-05,15.6636853 L9.03444079e-05,2.28613429 C9.03444079e-05,1.05450776 1.01104427,0.056542449 2.25870054,0.056542449 C3.50635682,0.056542449 4.51731074,1.05450776 4.51731074,2.28613429 L4.51731074,15.6636853 C4.51731074,16.8953118 3.50635682,17.8932771 2.25870054,17.8932771" id="Fill-1" fill="#FFFFFF"></path>
                    <path d="M18.520694,17.8932771 C17.2730377,17.8932771 16.2620838,16.8953118 16.2620838,15.6636853 L16.2620838,2.28613429 C16.2620838,1.05450776 17.2730377,0.056542449 18.520694,0.056542449 C19.7683502,0.056542449 20.7793042,1.05450776 20.7793042,2.28613429 L20.7793042,15.6636853 C20.7793042,16.8953118 19.7683502,17.8932771 18.520694,17.8932771" id="Fill-3" fill="#FFFFFF"></path>
                    <path d="M41.3410138,17.6411549 C40.4592524,18.5115876 39.0291004,18.5115876 38.147339,17.6411549 L37.2204054,16.7261304 C36.3381922,15.8556978 36.3381922,14.4439202 37.2204054,13.5730416 C38.1021668,12.702609 39.5323188,12.702609 40.4140802,13.5730416 L41.3410138,14.4880661 C42.223227,15.3589447 42.223227,16.7702763 41.3410138,17.6411549" id="Fill-5" fill="#FFFFFF"></path>
                    <path d="M67.7583963,17.8932771 C66.51074,17.8932771 65.4997861,16.8953118 65.4997861,15.6636853 L65.4997861,2.28613429 C65.4997861,1.05450776 66.51074,0.056542449 67.7583963,0.056542449 C69.0060526,0.056542449 70.0170065,1.05450776 70.0170065,2.28613429 L70.0170065,15.6636853 C70.0170065,16.8953118 69.0060526,17.8932771 67.7583963,17.8932771" id="Fill-7" fill="#FFFFFF"></path>
                    <path d="M11.2931413,17.8932771 L2.25870054,17.8932771 C1.01104427,17.8932771 9.03444079e-05,16.8953118 9.03444079e-05,15.6636853 C9.03444079e-05,14.4320588 1.01104427,13.4340935 2.25870054,13.4340935 L11.2931413,13.4340935 C12.5407976,13.4340935 13.5517515,14.4320588 13.5517515,15.6636853 C13.5517515,16.8953118 12.5407976,17.8932771 11.2931413,17.8932771" id="Fill-11" fill="#FFFFFF"></path>
                    <path d="M32.9568269,15.6070537 C29.2143098,15.6070537 26.1809963,12.6122659 26.1809963,8.91827816 C26.1809963,5.22429041 29.2143098,2.22950265 32.9568269,2.22950265 C36.6988923,2.22950265 39.7326575,5.22429041 39.7326575,8.91827816 C39.7326575,12.6122659 36.6988923,15.6070537 32.9568269,15.6070537 Z" id="Stroke-13" stroke="#FFFFFF" stroke-width="4.66351779" stroke-linecap="round"></path>
                    <path d="M46.9602101,2.28243316 L46.9602101,9.36406276 C46.9602101,12.8123495 49.7916039,15.6069199 53.2843187,15.6069199 C56.7765818,15.6069199 59.6084273,12.8123495 59.6084273,9.36406276 L59.6084273,2.28243316" id="Stroke-15" stroke="#FFFFFF" stroke-width="4.66351779" stroke-linecap="round"></path>
                    <path d="M75.889393,17.8932771 C74.6417367,17.8932771 73.6307828,16.8953118 73.6307828,15.6636853 L73.6307828,2.28613429 C73.6307828,1.05450776 74.6417367,0.056542449 75.889393,0.056542449 C77.1370493,0.056542449 78.1480032,1.05450776 78.1480032,2.28613429 L78.1480032,15.6636853 C78.1480032,16.8953118 77.1370493,17.8932771 75.889393,17.8932771" id="Fill-9" fill="#FFFFFF"></path>
                    <path d="M76.2122846,15.6636853 L82.9307465,15.6636853 C86.6728118,15.6636853 89.7065771,12.6688976 89.7065771,8.9749098 C89.7065771,5.28092204 86.6728118,2.28613429 82.9307465,2.28613429 L76.2122846,2.28613429" id="Stroke-17" stroke="#FFFFFF" stroke-width="4.66351779" stroke-linecap="round"></path>
                </g>
            </g>
        </g>
    </g>
</svg>
