<svg xmlns="http://www.w3.org/2000/svg" xmlns:xlink="http://www.w3.org/1999/xlink" version="1.1" x="0px" y="0px" viewBox="0 0 100 100" enable-background="new 0 0 100 100" xml:space="preserve">
  <g fill="#FFFFFF">
    <path d="M77.845,26.948c-6.625-7.896-16.55-12.932-27.689-12.932c-19.975,0-36.138,16.107-36.138,35.984h14.395   c0-11.961,9.765-21.691,21.786-21.691c7.191,0,13.567,3.501,17.538,8.867l-8.464,8.088l26.71-0.012V18.667L77.845,26.948z"/>
    <path d="M49.799,71.687c-7.193,0-13.565-3.5-17.539-8.867l8.464-8.086l-26.706,0.012V81.33l8.134-8.281   c6.625,7.896,16.551,12.935,27.69,12.935c19.978,0,36.141-16.11,36.141-35.986H71.584C71.584,61.956,61.819,71.687,49.799,71.687z"/>
  </g>
</svg>
