<svg width="26px" height="27px" viewBox="0 0 26 27" version="1.1" xmlns="http://www.w3.org/2000/svg" xmlns:xlink="http://www.w3.org/1999/xlink">
    <defs></defs>
    <g id="Screens" stroke="none" stroke-width="2" fill="none" fill-rule="evenodd">
        <g id="Artboard" transform="translate(-291.000000, -624.000000)" stroke="#FFFFFF">
            <g id="Group" transform="translate(51.000000, 625.000000)">
                <g id="Group-3" transform="translate(241.000000, 0.000000)">
                    <path d="M8,15 L5,15 L5,15 C2.23857625,15 -3.38176876e-16,17.2385763 0,20 L0,20 L0,23 C1.3527075e-16,24.1045695 0.8954305,25 2,25 L22,25 C23.1045695,25 24,24.1045695 24,23 L24,20 C24,17.2385763 21.7614237,15 19,15 L16,15 C16,17.209139 14.209139,19 12,19 C9.790861,19 8,17.209139 8,15 Z" id="Combined-Shape"></path>
                    <rect id="Rectangle-6-Copy-3" x="6" y="0" width="12" height="12" rx="6"></rect>
                </g>
            </g>
        </g>
    </g>
</svg>
